PathFileType	4	(X/Y/Z)	s01c0202.trc
DataRate	CameraRate	NumFrames	NumMarkers	Units	OrigDataRate	OrigDataStartFrame	OrigNumFrames
200	200	5	48	mm	200	250	2000
Frame#	Time	racr			lacr			c7			jug			rlel			rdr			llel			ldr			s2			lic			ric			lasi			rasi			rpsi			lpsi			rgt			lgt			rth1			rth2			rth3			rth4			rlfc			rsh1			rsh2			rsh3			rsh4			rlmal			rmmal			rcal			rtoe			rmt5			lth1			lth2			lth4			lth3			llfc			lsh1			lsh2			lsh3			lsh4			llmal			lmmal			lcal			ltoe			lmt5			SBIKE			LBIKE			RBIKE			
		X1	Y1	Z1	X2	Y2	Z2	X3	Y3	Z3	X4	Y4	Z4	X5	Y5	Z5	X6	Y6	Z6	X7	Y7	Z7	X8	Y8	Z8	X9	Y9	Z9	X10	Y10	Z10	X11	Y11	Z11	X12	Y12	Z12	X13	Y13	Z13	X14	Y14	Z14	X15	Y15	Z15	X16	Y16	Z16	X17	Y17	Z17	X18	Y18	Z18	X19	Y19	Z19	X20	Y20	Z20	X21	Y21	Z21	X22	Y22	Z22	X23	Y23	Z23	X24	Y24	Z24	X25	Y25	Z25	X26	Y26	Z26	X27	Y27	Z27	X28	Y28	Z28	X29	Y29	Z29	X30	Y30	Z30	X31	Y31	Z31	X32	Y32	Z32	X33	Y33	Z33	X34	Y34	Z34	X35	Y35	Z35	X36	Y36	Z36	X37	Y37	Z37	X38	Y38	Z38	X39	Y39	Z39	X40	Y40	Z40	X41	Y41	Z41	X42	Y42	Z42	X43	Y43	Z43	X44	Y44	Z44	X45	Y45	Z45	X46	Y46	Z46	X47	Y47	Z47	X48	Y48	Z48	
250	1.2500	450.338318	1351.350830	-112.550743	453.711304	1350.581543	-415.060364	408.983398	1408.537231	-258.848663	430.834015	1249.428345	-264.275848	544.832520	1101.048096	-12.454113	711.830383	895.639221	-34.430828	552.929138	1103.275146	-506.656128	701.741699	896.615051	-447.903839	-91.742722	1148.843750	-245.908386	101.098442	1165.903687	-423.648895	76.711594	1143.575562	-98.368874	77.653816	1108.743286	-395.819000	98.064140	1093.397461	-122.523956	-60.820881	1183.656982	-192.789673	-67.403641	1189.312134	-300.191589	12.359759	1021.804016	-66.493118	20.767681	1049.451172	-455.379883	86.025742	900.065186	-52.115665	133.238281	833.107605	-64.260811	179.283554	757.182434	-82.253426	178.425247	863.599060	-78.128685	210.857956	655.826721	-109.907112	149.609818	555.660034	-74.840607	127.522568	473.809692	-74.961670	95.779961	390.409180	-85.215240	174.912354	458.772552	-109.451996	49.262390	268.784760	-103.703453	105.202248	280.614868	-175.656754	8.100002	240.989594	-161.061066	271.426636	181.699966	-132.536621	160.213699	167.145615	-69.646011	123.651871	984.973206	-456.314819	212.181793	982.007874	-462.060486	216.132965	1036.148682	-452.637970	297.177124	970.578369	-452.695282	403.521179	913.458008	-434.784515	321.785004	835.594421	-455.342377	281.385803	759.751526	-445.039886	238.754822	687.565735	-425.011780	332.061920	737.155090	-417.359283	180.053101	576.208069	-404.912262	208.810440	585.609863	-321.439117	124.657066	539.353027	-363.340546	401.104156	516.146851	-372.801514	295.813843	495.958832	-438.153839	-224.798508	892.668823	-252.934433	-12.747609	84.414017	-456.287415	-21.649811	80.839546	-56.179588	
251	1.2550	450.383575	1351.366211	-112.468643	453.885834	1350.350464	-415.012238	408.584503	1408.818237	-259.252625	431.223145	1249.873901	-264.246490	544.675659	1101.032715	-12.104319	711.730408	895.730103	-34.457596	551.650818	1103.079590	-511.641998	701.312744	896.919556	-447.406677	-92.117897	1149.147705	-245.501678	100.417824	1166.177490	-424.055298	76.845215	1143.955200	-98.471390	76.968620	1109.337036	-395.644989	97.918610	1093.778198	-122.331940	-61.001827	1183.931030	-192.477692	-67.851044	1189.705688	-299.747162	12.330090	1022.034424	-66.180412	20.535412	1049.807617	-454.904480	86.401604	900.614868	-51.950066	133.708237	833.757446	-64.038551	179.809937	757.821899	-82.008247	178.783798	864.252930	-78.160255	211.257828	656.379456	-110.152718	150.097168	556.433105	-74.961426	127.972061	474.485718	-75.071625	96.246162	391.195496	-85.273109	175.357376	459.574005	-109.644539	49.494797	269.525116	-103.644424	105.558266	281.177673	-175.637299	8.399608	241.917435	-161.056580	271.503082	181.315475	-132.560532	160.195816	167.431061	-69.722221	123.678261	985.323303	-455.413757	212.294403	982.285889	-460.683258	216.310791	1036.354126	-451.389496	297.058289	970.610962	-451.351288	403.134888	913.934570	-432.987274	321.753418	835.825012	-453.962006	281.466370	759.884888	-443.981506	238.925323	687.598999	-424.398895	332.131866	737.318115	-416.316010	180.422745	575.994568	-404.840210	209.031143	585.334900	-321.269470	125.051712	539.103027	-363.308838	401.356079	516.023560	-372.884338	296.088531	495.832855	-438.257690	-224.786835	892.661926	-252.944855	-12.753754	84.443130	-456.268738	-21.643898	80.843552	-56.181568	
252	1.2600	450.431427	1351.325928	-112.365089	454.010254	1350.168457	-415.368500	408.236115	1409.036743	-259.807007	431.613831	1250.148438	-264.144409	544.497864	1101.001953	-11.702888	711.946655	895.793091	-35.052616	550.444458	1102.617920	-516.824219	700.896240	897.436340	-446.729004	-92.550545	1149.476929	-245.026230	99.523842	1166.346436	-424.405579	76.965973	1144.390991	-98.513092	76.375206	1109.809326	-395.388428	97.779488	1094.163818	-122.111397	-60.573071	1183.802124	-192.438904	-68.126137	1189.961060	-299.426666	12.291739	1022.297791	-65.863647	20.230944	1050.212158	-454.418427	86.886986	901.267761	-51.738972	134.262756	834.380920	-63.882202	180.422470	758.637146	-81.783073	179.268784	864.976746	-78.157539	211.778046	657.142090	-110.444824	150.704880	557.183960	-75.082977	128.515457	475.318634	-75.294441	96.804459	392.047638	-85.379234	175.808304	460.366058	-109.849815	49.790546	270.338440	-103.594719	105.901779	281.799957	-175.667755	8.793757	243.096893	-161.147552	271.604950	180.971207	-132.580170	160.174179	167.791733	-69.839195	123.668320	985.687988	-454.430054	212.343002	982.495850	-459.182861	216.349579	1036.638916	-450.000214	297.178741	970.855591	-449.114990	402.831848	914.285767	-431.003418	321.668640	836.079285	-452.478119	281.538727	760.025330	-442.934753	239.177353	687.594788	-423.742218	332.146820	737.562073	-415.089050	180.845749	575.766418	-404.733673	209.304153	585.050720	-321.037964	125.482407	538.821289	-363.214233	401.679352	515.856262	-372.938019	296.393066	495.696472	-438.321106	-224.803528	892.644775	-252.901611	-12.747393	84.441193	-456.290833	-21.649570	80.862045	-56.212883	
253	1.2650	450.467682	1351.308105	-112.362938	454.085083	1350.004395	-416.119629	407.935974	1409.153442	-260.307373	432.048706	1250.569336	-263.590149	544.340698	1100.985107	-11.219027	711.919983	895.921875	-35.285770	549.201904	1101.929199	-521.972107	700.589294	898.161682	-445.870544	-92.949364	1149.881226	-244.512131	98.577065	1166.645264	-424.815460	77.063095	1144.785522	-98.541588	75.689651	1110.350830	-394.656158	97.569466	1094.733521	-121.786789	-60.758770	1184.185059	-191.942688	-68.590317	1190.382812	-298.823730	12.246262	1022.599731	-65.470116	19.907309	1050.772583	-453.905212	87.352646	902.027344	-51.569138	134.852997	835.225769	-63.749073	181.103638	759.427124	-81.680389	179.780609	865.920654	-78.114006	212.371582	657.925049	-110.844376	151.354401	558.167480	-75.300476	129.190323	476.337860	-75.491852	97.394302	393.037598	-85.516579	176.371597	461.364563	-110.202629	50.166580	271.184296	-103.529556	106.262192	282.506714	-175.735687	9.253788	244.256470	-161.240509	271.721130	180.613220	-132.566391	160.171188	168.180283	-69.953224	123.616249	986.070740	-453.365601	212.388718	982.763367	-457.549103	216.381729	1036.922974	-448.523193	297.051636	971.055115	-447.119110	402.453156	914.804871	-428.912262	321.623657	836.361145	-450.802826	281.601166	760.163635	-441.777557	239.444687	687.627441	-423.051910	332.265350	737.784363	-413.784149	181.276840	575.533875	-404.583740	209.761032	584.714417	-320.673676	125.928452	538.534058	-363.086975	402.005920	515.657898	-373.049286	296.677887	495.521759	-438.375580	-224.791855	892.657837	-252.871658	-12.742495	84.442078	-456.284760	-21.648941	80.855301	-56.194870	
254	1.2700	450.534882	1351.283936	-112.460236	454.224121	1349.879883	-417.112671	407.786865	1409.015259	-260.938019	432.355438	1250.806519	-263.611908	544.195068	1101.042480	-10.332132	711.874390	896.042175	-35.555637	547.933899	1100.981689	-526.724182	700.486267	899.151001	-444.883972	-93.357780	1150.278076	-243.918350	97.500671	1166.815430	-425.197479	77.143257	1145.188232	-98.535774	75.003555	1110.801636	-394.255829	97.376656	1095.281616	-121.516800	-61.608795	1185.069092	-191.002350	-69.230568	1190.983032	-298.011139	12.202065	1022.937622	-65.036369	19.531723	1051.183350	-453.355011	87.875923	902.838013	-51.401848	135.500717	836.149719	-63.597134	181.901138	760.536072	-81.722656	180.298569	866.918152	-78.126198	213.055801	658.796997	-111.249939	152.134750	559.198853	-75.549294	129.923523	477.376923	-75.763382	98.044540	394.012421	-85.692192	177.017288	462.322449	-110.627304	50.528454	272.125122	-103.587814	106.539101	283.242676	-175.877487	9.719993	245.600357	-161.368637	271.839600	180.076248	-132.593353	160.190079	168.600250	-70.084953	123.518127	986.471558	-452.224976	212.285782	983.099365	-455.878510	216.318054	1037.209106	-446.939911	296.920929	971.306763	-445.093536	402.091888	915.235474	-426.699493	321.570831	836.643188	-449.011688	281.753845	760.254272	-440.468506	239.808044	687.583984	-422.265228	332.342590	737.893494	-412.351440	181.718430	575.320740	-404.384186	210.058472	584.303650	-320.342590	126.371124	538.242371	-362.928162	402.301392	515.464111	-373.115479	296.946106	495.339691	-438.438324	-224.779846	892.620056	-252.831680	-12.744987	84.446739	-456.297516	-21.651331	80.874344	-56.182011	
